<svg id="Layer_1" data-name="Layer 1" xmlns="http://www.w3.org/2000/svg" viewBox="0 0 592.98 102.67"><defs><style>.cls-1{fill:#fff;}.cls-2{fill:#ee3124;}.cls-3{fill:#231f20;}.cls-4{fill:none;stroke:#231f20;stroke-width:0.45px;}</style></defs><title>MOS logo-horizontal L-color-NEW</title><path class="cls-1" d="M52.78,31.52a18,18,0,0,0-18,18,17.76,17.76,0,0,0,2.92,9.8C11.15,81.36,8.6,101.07,8.43,102.67H26.2c-1.58-17,6.09-29.13,16.31-38.42A18,18,0,0,0,70.76,49.5a17.44,17.44,0,0,0-.51-4.17c17.29-10.23,31.8-12.14,32.42-12.21V23.53A199.46,199.46,0,0,0,67.34,39,17.94,17.94,0,0,0,52.78,31.52Z"/><path class="cls-2" d="M70.76,49.5A18,18,0,0,1,42.51,64.25c-10.22,9.29-17.89,21.4-16.31,38.42h76.47V33.12c-.62.07-15.13,2-32.42,12.21A17.44,17.44,0,0,1,70.76,49.5Z"/><path class="cls-2" d="M0,0V102.67H8.43c.17-1.6,2.72-21.31,29.29-43.37a17.76,17.76,0,0,1-2.92-9.8A18,18,0,0,1,67.34,39a199.46,199.46,0,0,1,35.33-15.46V0Z"/><path class="cls-3" d="M168.9,31.69V67.27h-6.5L163,38l-7.66,29.23h-6L141.63,38l.66,29.23h-6.5V31.69h9.67l7,26.41,6.8-26.41Z"/><path class="cls-3" d="M198.94,42.07v25.2h-6.05V64.7a11.18,11.18,0,0,1-8.17,3.17c-4.13,0-6.09-1.76-7-2.92C176,62.78,176,60.41,176,56.63V42.07h6.1V56.53a9.3,9.3,0,0,0,.2,2.52c.66,2.22,2.47,3.18,4.69,3.18a5.56,5.56,0,0,0,4.89-2.67c.91-1.67,1-3.28,1-6.81V42.07Z"/><path class="cls-3" d="M207.86,59.81A8.81,8.81,0,0,0,215.11,63c3.48,0,5-1.72,5-3,0-1.61-1.81-2-2.62-2.17s-5-1-5.89-1.2c-6-1.42-7.11-4.89-7.11-7.16,0-4.29,3.88-8.22,10.78-8.22a14.3,14.3,0,0,1,8.32,2.42A11.13,11.13,0,0,1,226.15,46l-4.28,4c-.71-1.36-2.42-3.83-6.86-3.83-2.87,0-4.18,1.26-4.18,2.57,0,1.82,1.86,2.32,5.09,2.88,5.24.95,6.7,1.2,8.32,2.46a6.86,6.86,0,0,1,2.57,5.35c0,3.93-3.53,8.61-11.34,8.61a17.27,17.27,0,0,1-12.1-4.48Z"/><path class="cls-3" d="M255.48,61.62a14.64,14.64,0,0,1-12.3,6.4c-6.6,0-13-4.18-13-13.45,0-8.47,5.45-13.26,12.55-13.26,6.65,0,9.43,4,9.93,4.74,2.07,2.92,2.52,7.31,2.57,9.83H236.63c.71,4,3.18,6.25,7.16,6.25a7.34,7.34,0,0,0,6.55-3.48Zm-6.85-10.18c-.56-3.93-3-5.29-5.65-5.29-3.22,0-5.44,1.87-6.15,5.29Z"/><path class="cls-3" d="M282.9,42.07v25.2h-6V64.7a11.17,11.17,0,0,1-8.16,3.17c-4.14,0-6.1-1.76-7-2.92C260,62.78,260,60.41,260,56.63V42.07h6.1V56.53a9.3,9.3,0,0,0,.2,2.52c.65,2.22,2.47,3.18,4.68,3.18a5.55,5.55,0,0,0,4.89-2.67c.91-1.67,1-3.28,1-6.81V42.07Z"/><path class="cls-3" d="M289.45,42.07h6v2.82a10.81,10.81,0,0,1,8-3.58,7.8,7.8,0,0,1,7,3.88,9.8,9.8,0,0,1,8.06-3.88,8.74,8.74,0,0,1,6.65,2.57c2,2.22,2,4.89,2,7.51V67.27h-6V53.36c0-2.37.35-6.35-4.23-6.35a5.06,5.06,0,0,0-4.29,2.37,10.86,10.86,0,0,0-1.31,6V67.27h-6V53.21a11.87,11.87,0,0,0-.21-3.23,3.84,3.84,0,0,0-3.88-3,5.41,5.41,0,0,0-4.63,2.92c-1.06,2-1.11,4.34-1.11,6.81V67.27h-6Z"/><path class="cls-3" d="M358.85,68c-7.86,0-13.11-5.74-13.11-13.45s5.35-13.26,12.86-13.26c7,0,13,4.89,13,13.26C371.65,62.43,366.46,68,358.85,68Zm-.3-21.26c-3.78,0-6.51,3-6.51,7.66,0,5.19,3.18,8.06,6.81,8.06,4.38,0,6.6-3.83,6.45-8S362.78,46.76,358.55,46.76Z"/><path class="cls-3" d="M383.39,46.35V67.27h-6V46.35h-3.79V42h3.79V39.15c-.06-3.58-.06-7.51,8.11-7.51,1.21,0,2.32.1,3.43.2V37a9.59,9.59,0,0,0-1.92-.15c-1.61,0-2.57.35-3.17,1.26a4.13,4.13,0,0,0-.41,1.86V42h5.5v4.33Z"/><path class="cls-3" d="M409.55,56.69c.86,1.31,3.53,5.39,11,5.39a10,10,0,0,0,3.83-.61,4.25,4.25,0,0,0,3-4.08,3.63,3.63,0,0,0-2.67-3.53,27.48,27.48,0,0,0-4.13-1.11l-4.29-.9a33.54,33.54,0,0,1-4.48-1.26,9.08,9.08,0,0,1-6-8.72c0-6.76,5.69-11.09,14.06-11.09A16.64,16.64,0,0,1,434.24,38l-5.44,4.08c-1.21-1.76-3.53-5.29-9.22-5.29-3.58,0-6.7,1.61-6.7,4.33,0,3,3.32,3.63,6.55,4.24l3.68.8c4.78,1,11.54,3,11.54,10.59,0,8.16-7.56,11.44-15.12,11.44a24,24,0,0,1-6.35-.81A16.06,16.06,0,0,1,404,60.62Z"/><path class="cls-3" d="M455.81,51a5.86,5.86,0,0,0-5.69-4.28c-3.48,0-6.25,2.77-6.25,7.81,0,4.53,2.37,7.86,6.35,7.86,3.83,0,5.29-2.92,6-4.94l5.19,2.72A11.91,11.91,0,0,1,450.12,68c-7,0-12.5-5.39-12.5-13.35,0-7.71,5.54-13.36,12.7-13.36a11.64,11.64,0,0,1,10.89,7.16Z"/><path class="cls-3" d="M470.88,32v6.1h-6V32Zm0,10v25.2h-6V42.07Z"/><path class="cls-3" d="M501.17,61.62A14.64,14.64,0,0,1,488.88,68c-6.61,0-13-4.18-13-13.45,0-8.47,5.45-13.26,12.55-13.26,6.66,0,9.43,4,9.93,4.74,2.07,2.92,2.52,7.31,2.57,9.83H482.32c.71,4,3.18,6.25,7.16,6.25A7.34,7.34,0,0,0,496,58.65Zm-6.85-10.18c-.56-3.93-3-5.29-5.65-5.29-3.22,0-5.44,1.87-6.14,5.29Z"/><path class="cls-3" d="M505.71,42.07h6.1v3a6.91,6.91,0,0,1,2-2,10.47,10.47,0,0,1,5.8-1.77,8.24,8.24,0,0,1,6.6,3c1.56,2.11,1.56,4.84,1.56,8.11V67.27h-6V54.42a17.06,17.06,0,0,0-.21-3.83,4.11,4.11,0,0,0-4.13-3.38A5.31,5.31,0,0,0,512.76,50c-.95,1.87-.95,4.44-.95,6.3V67.27h-6.1Z"/><path class="cls-3" d="M550.26,51a5.87,5.87,0,0,0-5.69-4.28c-3.48,0-6.25,2.77-6.25,7.81,0,4.53,2.37,7.86,6.35,7.86s5.29-2.92,6-4.94l5.2,2.72A11.91,11.91,0,0,1,544.57,68c-7,0-12.5-5.39-12.5-13.35,0-7.71,5.54-13.36,12.7-13.36a11.63,11.63,0,0,1,10.88,7.16Z"/><path class="cls-3" d="M583,61.62a14.65,14.65,0,0,1-12.3,6.4c-6.6,0-13-4.18-13-13.45,0-8.47,5.44-13.26,12.55-13.26,6.65,0,9.42,4,9.93,4.74,2.06,2.92,2.52,7.31,2.57,9.83H564.17c.71,4,3.18,6.25,7.16,6.25a7.36,7.36,0,0,0,6.55-3.48Zm-6.85-10.18c-.56-3.93-3-5.29-5.65-5.29-3.22,0-5.44,1.87-6.15,5.29Z"/><path class="cls-4" d="M592.75,64.87a3.09,3.09,0,1,1-3.08-3.08A3.08,3.08,0,0,1,592.75,64.87Z"/><path class="cls-3" d="M588.9,65.08v1.33h-.4V63.28h1.16a1.49,1.49,0,0,1,.93.19.87.87,0,0,1,.33.72.81.81,0,0,1-.74.86l.87,1.36h-.49l-.85-1.33Zm0-.34h.83a1.2,1.2,0,0,0,.38,0,.48.48,0,0,0,.39-.5.56.56,0,0,0-.19-.44.84.84,0,0,0-.6-.13h-.81Z"/></svg>