<?xml version="1.0" encoding="utf-8"?>
<!-- Generator: Adobe Illustrator 22.0.1, SVG Export Plug-In . SVG Version: 6.00 Build 0)  -->
<svg version="1.1" id="Layer_1" xmlns="http://www.w3.org/2000/svg" xmlns:xlink="http://www.w3.org/1999/xlink" x="0px" y="0px"
	 viewBox="0 0 316.2 294.2" style="enable-background:new 0 0 316.2 294.2;" xml:space="preserve">
<style type="text/css">
	.st0{fill:#EE3124;}
	.st1{fill:#FFFFFF;}
</style>
<title>red.lg</title>
<rect class="st0" width="293.8" height="293.8"/>
<path class="st1" d="M29.9,198.6c0,6.4,3.5,9.8,10.3,9.8h65.6c6.7,0,10.2-3.4,10.2-9.8v-7.1c0-6.4-3.5-9.8-10.2-9.8H62.6v-23.9H93
	c6.7,0,10.2-3.4,10.2-9.8v-7c0-6.4-3.5-9.8-10.2-9.8H62.6v-23h40.6c6.7,0,10.3-3.4,10.3-9.8v-7c0-6.4-3.5-9.8-10.3-9.8h-63
	c-6.7,0-10.3,3.4-10.3,9.8V198.6z"/>
<path class="st1" d="M130.6,199.2c0,6,3.5,9.2,10.3,9.2h11.9c6.7,0,10.3-3.2,10.3-9.2v-67.4c0-6-3.5-9.2-10.3-9.2h-11.8
	c-6.7-0.1-10.3,3.1-10.3,9.2V199.2z"/>
<path class="st1" d="M184.6,198.6c0,6.4,3.5,9.8,10.3,9.8h65.6c6.7,0,10.3-3.4,10.3-9.8v-7.1c0-6.4-3.5-9.8-10.3-9.8h-43.3v-23.9
	h30.4c6.7,0,10.3-3.4,10.3-9.8v-7c0-6.4-3.5-9.8-10.3-9.8h-30.4v-23h40.7c6.7,0,10.3-3.4,10.3-9.8v-7c0-6.4-3.5-9.8-10.3-9.8h-63
	c-6.7,0-10.3,3.4-10.3,9.8V198.6z"/>
<path class="st1" d="M146.9,113c8.7-0.4,15.4-7.8,15-16.5s-7.8-15.4-16.5-15c-8.4,0.4-15,7.3-15,15.8
	C130.5,106.2,137.9,113.2,146.9,113"/>
<path class="st0" d="M306.7,276.5c1.4,0,2.9,0.4,4.2,1.1c1.4,0.7,2.5,1.8,3.2,3.2c0.8,1.4,1.2,2.8,1.2,4.3c0,1.5-0.4,2.9-1.1,4.3
	c-0.8,1.4-1.8,2.4-3.2,3.2c-1.4,0.8-2.8,1.1-4.3,1.1c-1.5,0-2.9-0.4-4.3-1.1c-1.4-0.8-2.4-1.8-3.2-3.2c-0.8-1.4-1.1-2.8-1.1-4.3
	c0-1.5,0.4-2.9,1.2-4.3c0.8-1.4,1.8-2.4,3.2-3.2C303.8,276.9,305.2,276.5,306.7,276.5z M306.7,277.9c-1.2,0-2.4,0.3-3.5,0.9
	c-1.1,0.6-2,1.5-2.7,2.7c-0.6,1.2-1,2.4-1,3.6c0,1.2,0.3,2.4,1,3.6c0.6,1.1,1.5,2,2.7,2.7c1.1,0.6,2.3,1,3.6,1c1.2,0,2.4-0.3,3.6-1
	c1.1-0.6,2-1.5,2.7-2.7c0.6-1.1,0.9-2.3,0.9-3.6c0-1.2-0.3-2.4-1-3.6c-0.6-1.2-1.5-2-2.7-2.7C309,278.2,307.9,277.9,306.7,277.9z
	 M303.5,289.9v-9.3h3.2c1.1,0,1.9,0.1,2.4,0.3c0.5,0.2,0.9,0.5,1.2,0.9c0.3,0.4,0.4,0.9,0.4,1.4c0,0.7-0.2,1.3-0.7,1.8
	c-0.5,0.5-1.1,0.8-1.9,0.8c0.3,0.1,0.6,0.3,0.8,0.5c0.4,0.4,0.8,1,1.4,1.8l1.1,1.8h-1.8l-0.8-1.5c-0.6-1.1-1.2-1.9-1.6-2.2
	c-0.3-0.2-0.7-0.3-1.2-0.3H305v3.9H303.5z M305,284.7h1.8c0.9,0,1.5-0.1,1.8-0.4c0.3-0.3,0.5-0.6,0.5-1c0-0.3-0.1-0.5-0.2-0.7
	c-0.2-0.2-0.4-0.4-0.6-0.5c-0.3-0.1-0.8-0.2-1.5-0.2H305V284.7z"/>
</svg>
